<svg xmlns="http://www.w3.org/2000/svg" version="1.1" xmlns:xlink="http://www.w3.org/1999/xlink" xmlns:svgjs="http://svgjs.com/svgjs" width="3840" height="2160" preserveAspectRatio="none" viewBox="0 0 3840 2160"><g mask="url(&quot;#SvgjsMask1010&quot;)" fill="none"><rect width="3840" height="2160" x="0" y="0" fill="url(#SvgjsLinearGradient1011)"></rect><path d="M241.571,604.577C368.026,600.504,475.077,522.464,539.958,413.845C606.795,301.95,636.069,164.293,572.544,50.485C507.658,-65.761,374.671,-123.484,241.571,-120.724C113.33,-118.065,-0.357,-46.195,-66.452,63.734C-134.816,177.437,-157.738,318.917,-92.079,434.204C-25.841,550.508,107.797,608.886,241.571,604.577" fill="rgba(28, 83, 142, 0.4)" class="triangle-float1"></path><path d="M184.6239326108431 574.6300913130284L599.7309452243538-39.528005661265865-45.80321913909734-96.0049269617482z" fill="rgba(28, 83, 142, 0.4)" class="triangle-float3"></path><path d="M88.741,306.814C162.617,309.986,221.404,250.682,256.502,185.598C289.65,124.13,294.163,50.78,259.51,-9.852C224.599,-70.935,159.067,-109.992,88.741,-107.927C21.579,-105.954,-34.684,-60.017,-65.494,-0.306C-93.797,54.547,-83.493,117.029,-55.792,172.188C-24.123,235.25,18.239,303.787,88.741,306.814" fill="rgba(28, 83, 142, 0.4)" class="triangle-float3"></path><path d="M3701.652,661.001C3841.012,669.456,3982.862,617.105,4057.267,498.967C4136.337,373.422,4144.281,209.297,4065.212,83.751C3990.374,-35.076,3842.081,-66.297,3701.652,-65.676C3562.603,-65.061,3410.434,-35.004,3343.618,86.941C3278.469,205.845,3341.922,344.877,3413.672,459.918C3480.078,566.392,3576.397,653.401,3701.652,661.001" fill="rgba(28, 83, 142, 0.4)" class="triangle-float1"></path><path d="M3416.9235082973155 681.1014153753009L4021.8836246675023 448.878984069946 3789.661193362147-156.0811323002407 3184.7010769919607 76.1412990051142z" fill="rgba(28, 83, 142, 0.4)" class="triangle-float1"></path><path d="M3972.868,1179.738C4190.704,1182.645,4383.369,1053.367,4496.442,867.154C4614.43,672.846,4661.592,429.726,4547.789,232.938C4434.1,36.347,4199.942,-34.991,3972.868,-38.209C3738.786,-41.526,3483.498,12.03,3369.015,216.234C3256.207,417.449,3350.447,658.032,3472.95,853.496C3586.207,1034.208,3759.617,1176.892,3972.868,1179.738" fill="rgba(28, 83, 142, 0.4)" class="triangle-float3"></path><path d="M569.6619446140047 1785.0684772241812L258.9071508677073 1484.9760611858942-35.85407631657415 2101.1544598244836z" fill="rgba(28, 83, 142, 0.4)" class="triangle-float3"></path><path d="M55.19,1971.879C119.461,1971.452,169.95,1923.662,202.056,1867.983C234.125,1812.368,248.492,1745.675,218.292,1689.023C186.439,1629.27,122.76,1588.085,55.19,1592.482C-6.851,1596.519,-45.264,1653.429,-74.873,1708.098C-102.627,1759.341,-120.867,1817.689,-95.095,1869.957C-66.405,1928.143,-9.684,1972.31,55.19,1971.879" fill="rgba(28, 83, 142, 0.4)" class="triangle-float2"></path><path d="M122.82514376309257 1596.2667025359353L-57.19341247453863 2315.3614942081595 568.7265229607776 2147.646752981726z" fill="rgba(28, 83, 142, 0.4)" class="triangle-float3"></path><path d="M3132.230854637602 1812.2308546376023L3456.2308546376025 2373.4153162899183 4017.4153162899183 2049.415316289918 3693.4153162899183 1488.230854637602z" fill="rgba(28, 83, 142, 0.4)" class="triangle-float2"></path><path d="M3505.46310731047 2313.167990312691L3936.4107770227147 2283.033193655229 3675.734747180399 1651.6790874155936z" fill="rgba(28, 83, 142, 0.4)" class="triangle-float2"></path><path d="M3251.6554834602252 2291.216878913974L3899.2607393685994 2313.831752777195 3921.8756132318204 1666.226496868821 3274.270357323446 1643.6116230056z" fill="rgba(28, 83, 142, 0.4)" class="triangle-float1"></path></g><defs><mask id="SvgjsMask1010"><rect width="3840" height="2160" fill="#ffffff"></rect></mask><linearGradient x1="10.94%" y1="-19.44%" x2="89.06%" y2="119.44%" gradientUnits="userSpaceOnUse" id="SvgjsLinearGradient1011"><stop stop-color="#0e2a47" offset="0"></stop><stop stop-color="#00459e" offset="1"></stop></linearGradient><style>
            @keyframes float1 {
                0%{transform: translate(0, 0)}
                50%{transform: translate(-10px, 0)}
                100%{transform: translate(0, 0)}
            }

            .triangle-float1 {
                animation: float1 5s infinite;
            }

            @keyframes float2 {
                0%{transform: translate(0, 0)}
                50%{transform: translate(-5px, -5px)}
                100%{transform: translate(0, 0)}
            }

            .triangle-float2 {
                animation: float2 4s infinite;
            }

            @keyframes float3 {
                0%{transform: translate(0, 0)}
                50%{transform: translate(0, -10px)}
                100%{transform: translate(0, 0)}
            }

            .triangle-float3 {
                animation: float3 6s infinite;
            }
        </style></defs></svg>